<svg
  xmlns="http://www.w3.org/2000/svg"
  viewBox="0 0 1024 1024"
  role="img"
  aria-label="Slideo app icon"
>
  <defs>
    <linearGradient
      id="background"
      x1="128"
      y1="72"
      x2="896"
      y2="944"
      gradientUnits="userSpaceOnUse"
    >
      <stop offset="0" stop-color="#fff4d8" />
      <stop offset="0.5" stop-color="#edf8f0" />
      <stop offset="1" stop-color="#d8effb" />
    </linearGradient>
    <linearGradient
      id="slide"
      x1="256"
      y1="236"
      x2="760"
      y2="760"
      gradientUnits="userSpaceOnUse"
    >
      <stop offset="0" stop-color="#ffffff" />
      <stop offset="1" stop-color="#ffe8b8" />
    </linearGradient>
    <linearGradient
      id="play"
      x1="436"
      y1="392"
      x2="664"
      y2="608"
      gradientUnits="userSpaceOnUse"
    >
      <stop offset="0" stop-color="#ff5f38" />
      <stop offset="0.56" stop-color="#ff8f3f" />
      <stop offset="1" stop-color="#ffc13d" />
    </linearGradient>
    <linearGradient
      id="timeline"
      x1="294"
      y1="535"
      x2="720"
      y2="535"
      gradientUnits="userSpaceOnUse"
    >
      <stop offset="0" stop-color="#ffb63e" />
      <stop offset="0.5" stop-color="#ffd55f" />
      <stop offset="1" stop-color="#ffb63e" />
    </linearGradient>
    <filter id="softShadow" x="-20%" y="-20%" width="140%" height="140%">
      <feDropShadow
        dx="0"
        dy="24"
        stdDeviation="24"
        flood-color="#31576e"
        flood-opacity="0.28"
      />
    </filter>
    <filter id="playShadow" x="-35%" y="-35%" width="170%" height="170%">
      <feDropShadow
        dx="0"
        dy="12"
        stdDeviation="8"
        flood-color="#0c263d"
        flood-opacity="0.34"
      />
    </filter>
  </defs>
  <g transform="translate(64 64) scale(0.875)">
    <rect width="1024" height="1024" rx="226" fill="url(#background)" />
    <path
      d="M170 690c134 88 288 120 462 96 85-12 159-36 222-72"
      fill="none"
      stroke="#79ddd8"
      stroke-width="28"
      stroke-linecap="round"
      opacity="0.2"
    />
    <g transform="translate(-61 -57) scale(1.12)">
      <g filter="url(#softShadow)">
        <path
          d="M234 276c0-35 28-63 63-63h420c35 0 63 28 63 63v430c0 35-28 63-63 63H297c-35 0-63-28-63-63V276Z"
          fill="url(#slide)"
          stroke="#ffffff"
          stroke-width="12"
        />
        <path
          d="M294 323c0-23 19-42 42-42h342c23 0 42 19 42 42v212H294V323Z"
          fill="#102b45"
        />
        <path
          d="M336 623h170"
          fill="none"
          stroke="#26475e"
          stroke-width="24"
          stroke-linecap="round"
          opacity="0.32"
        />
        <path
          d="M336 681h284"
          fill="none"
          stroke="#26475e"
          stroke-width="24"
          stroke-linecap="round"
          opacity="0.2"
        />
        <g>
          <path
            d="M294 535h426"
            fill="none"
            stroke="#0d2b44"
            stroke-width="30"
            stroke-linecap="round"
            opacity="0.42"
          />
          <path
            d="M294 535h426"
            fill="none"
            stroke="url(#timeline)"
            stroke-width="20"
            stroke-linecap="round"
            opacity="1"
          />
        </g>
      </g>
      <g filter="url(#playShadow)">
        <path
          d="M438 383c0-22 24-36 43-25l149 86c19 11 19 39 0 50l-149 86c-19 11-43-3-43-25V383Z"
          fill="#0d2b44"
          opacity="0.52"
          transform="translate(6 8)"
        />
        <path
          d="M438 383c0-22 24-36 43-25l149 86c19 11 19 39 0 50l-149 86c-19 11-43-3-43-25V383Z"
          fill="url(#play)"
          stroke="#0d2b44"
          stroke-width="10"
        />
        <path
          d="M464 403c0-9 10-15 18-10l112 65c8 5 8 17 0 22l-112 65c-8 5-18-1-18-10V403Z"
          fill="none"
          stroke="#fff1b8"
          stroke-width="7"
          stroke-linejoin="round"
          opacity="0.88"
        />
      </g>
    </g>
  </g>
</svg>
